<svg xmlns="http://www.w3.org/2000/svg" id="Layer_1" viewBox="0 0 49.67 52.07" >
  <defs>
    <linearGradient id="svg-gradient" x1="18.66" x2="32.85" y1="30.99" y2="30.99" gradientUnits="userSpaceOnUse">
      <stop offset="0" stop-color="#fff33b" />
      <stop offset="1" stop-color="#e93e3a" />
    </linearGradient>
  </defs>
  <path fill="none" d="M17.27 9.69h16.96v42.38H17.27V9.69Z"/>
  <path fill="url(#svg-gradient)" d="m24.82 48.23 2.69-13.71 2.87 10.8c-1.49 2.73-3.21 4.06-5.56 2.91Zm-1.41-1.14c-1.91-2.07-3.44-6-4.22-10.81h6.34l-2.12 10.8Zm-4.63-14.34c-.38-5.01.11-10 1.35-13.7l3.64 13.7h-4.99Zm2.34-16.1c1.49-2.73 3.2-4.06 5.56-2.91l-2.69 13.71-2.87-10.8Zm6.97-1.77c1.91 2.07 3.44 6 4.22 10.81h-6.34l2.12-10.8Zm4.63 14.34c.38 5.01-.11 10-1.35 13.7l-3.64-13.7h4.99Z"/>
  <path fill="#282828" d="M0 47.93V1a1 1 0 0 1 1-1h6.11a9.5 9.5 0 0 1 4.76 1.12c1.32.75 2.34 2.06 3.05 3.96.71 1.89 1.07 4.51 1.07 7.85 0 2.01-.1 3.8-.29 5.35-.19 1.55-.53 2.9-1.02 4.05a6.9 6.9 0 0 1-1.63 2.39 1 1 0 0 0-.33.9l3.52 22.16a1 1 0 0 1-.98 1.15h-3.69a1 1 0 0 1-.99-.86L7.67 27.61a1 1 0 0 0-.99-.86h-.1a1 1 0 0 0-1 1v20.18a1 1 0 0 1-1 1H1a1 1 0 0 1-1-1Zm5.59-28.09a1 1 0 0 0 1 1h.63c.9 0 1.61-.26 2.13-.79.52-.52.89-1.32 1.1-2.39.21-1.07.32-2.39.32-3.96 0-2.25-.23-3.98-.69-5.16a2.56 2.56 0 0 0-2.59-1.78h-.9a1 1 0 0 0-1 1v12.08ZM35.62 47.93V1a1 1 0 0 1 1-1h3.12a1 1 0 0 1 1 1v46.93a1 1 0 0 1-1 1h-3.12a1 1 0 0 1-1-1ZM44.55 47.93V1a1 1 0 0 1 1-1h3.11a1 1 0 0 1 1 1v46.93a1 1 0 0 1-1 1h-3.11a1 1 0 0 1-1-1ZM17.58 11.57V.85c0-.28.22-.5.5-.5h2.58c.58 0 1.06.13 1.43.4.37.27.64.65.82 1.15.18.5.27 1.11.27 1.82a4.6 4.6 0 0 1-.35 1.97 2.1 2.1 0 0 1-.97 1c-.41.2-.88.3-1.4.3h-.9v4.58a.5.5 0 0 1-.5.5h-.98a.5.5 0 0 1-.5-.5Zm1.98-6.25h.7c.29 0 .51-.06.67-.17.16-.11.26-.29.32-.53.06-.24.08-.55.08-.93 0-.36-.02-.66-.07-.9a.92.92 0 0 0-.29-.56c-.15-.13-.39-.2-.72-.2h-.68v3.28ZM24.23 11.57V.85c0-.28.22-.5.5-.5h.97c.28 0 .5.22.5.5v10.71a.5.5 0 0 1-.5.5h-.97a.5.5 0 0 1-.5-.5ZM30.39 12.23c-.72 0-1.29-.16-1.71-.49s-.71-.78-.88-1.37-.25-1.26-.25-2.03V4.13c0-.81.08-1.51.25-2.09.17-.58.46-1.03.88-1.35.42-.32.99-.48 1.71-.48s1.24.14 1.64.42c.4.28.68.68.84 1.19.16.51.25 1.1.25 1.78v.98H31.2v-1.1c0-.27-.01-.52-.04-.76a1.11 1.11 0 0 0-.2-.58c-.11-.15-.29-.22-.56-.22s-.46.08-.58.23c-.12.15-.2.35-.23.6s-.05.52-.05.82v5.32c0 .33.02.61.07.86.04.25.13.43.25.56.12.13.3.2.53.2.26 0 .44-.07.55-.22.11-.15.18-.35.2-.6.03-.25.04-.52.04-.8V7.75h1.92v.97c0 .69-.08 1.29-.24 1.82s-.44.94-.83 1.24-.94.46-1.66.46Z" className="cls-3"/>
</svg>