<svg xmlns="http://www.w3.org/2000/svg" viewBox="0 0 500 279">
  <defs>
    <linearGradient id="linear-gradient" x1="268.4" x2="162.9" y1="126.1" y2="231.5" gradientUnits="userSpaceOnUse">
      <stop offset="0" stop-color="#f05123"/>
      <stop offset=".1" stop-color="#ee6322"/>
      <stop offset=".3" stop-color="#ed7d22"/>
      <stop offset=".5" stop-color="#eb9022"/>
      <stop offset=".8" stop-color="#eb9c22"/>
      <stop offset="1" stop-color="#eba022"/>
    </linearGradient>
  </defs>
  <g id="Layer_1">
    <path d="m215 87-1 2v2l-1 1-1 2v4l-3 1-2-1h-1l-1-1v-1l-1-2v-1l1-2 1-2a34 34 0 0 1 2-5l1-1v-1l1-1v-1h1v-1l1-1v-3l1-1 1-1 2-3 1-2v-1l1-1a67 67 0 0 1 5-12l1-2 1-1v-1a6 6 0 0 1 1-1v-1l1-2 2-2a15 15 0 0 0 2-4v-1l-1 1h-6l-1 1h-1a56 56 0 0 0-2 1h-2l1-1a104 104 0 0 0 0-2l5-4a131 131 0 0 1 9-3l2-3 2-3s1 0 0 0h1l1 1v1h3l1-1h4l1-1 5 1h1l1 1h1l1 1 2 2 1 1 1 1v1l1 2v3l-1 2v1a17 17 0 0 1 0 2v1l-1 2a67 67 0 0 0-2 7c0 2-1 3-3 4l-1 2-1 1-3 2-6 4-2 1-2 2-2 1h-1v1l-4 1a18 18 0 0 1-8 3 8 8 0 0 1-3-1h-1l-1 1v1l-1 3-2 3-1 2v1l-1 1Zm13-20h4l1-1v1a4 4 0 0 0 1-1 9 9 0 0 0 3-1 10 10 0 0 1 2-1l1-1h1l1-1 1-1a6 6 0 0 1 1-1l1-1 1-2 2-2 1-2 1-1 1-2v-1l1-1 1-2v-1l1-1v-1h1v-6h-1v-2h-1l-1-1h-3a8 8 0 0 0-3 1h-4a10 10 0 0 0-2 1l-2 1v1l-1 1-1 3a21 21 0 0 0-1 3l-2 4a50 50 0 0 1-3 7l-1 2a12 12 0 0 0-1 3v1l-1 1v1l-1 1v2l-1 1 1-1h2ZM257 89h4l1-1h1l2-1 3-1 1-1 3-2 3-2a53 53 0 0 0 4-3h1v-1l2 1-1 2-2 2h-1l-1 1v1h-1l-1 1-1 1-2 2-4 3a36 36 0 0 0-6 4l-1 1h-2l-1 1-3-1a123 123 0 0 1-3-2l-1-2-1-1v-6l1-2v-2l1-2v-1l1-1 1-2v-1l1-2 1-1v-1a9 9 0 0 0 1-1v-1l1-2a33 33 0 0 1 2-2l1-1h1c0 1 0 1 0 0h4l1 1-1 4a98 98 0 0 1-2 5l-1 2-1 2-1 2a12 12 0 0 0-1 2l-1 1-1 2v1a13 13 0 0 0-1 2v2Zm14-41h1v1a41 41 0 0 0 0 4v2l-1 1-1 1h-4l-1-1-1-4a15 15 0 0 1 1-2l2-1h1l1-1h2Z" class="cls-2"/>
    <path d="m314 73 1 2v1l-1 1-1 1-1 1h-1v1h-2a52 52 0 0 1-7 6l-3 2-3 2-1 1-1 1-2 2-1 1-1 1-3 1-2 1h-7v-1a6 6 0 0 1-3-1 7 7 0 0 1-1-2v-2l-1-2v-2l-1-2a7 7 0 0 1 1-1v-2a28 28 0 0 0 1-2l1-2v-1l1-1 1-1 1-2a22 22 0 0 0 2-2l1-1c1 0 0 0 0 0l1-1v-1h1l1-2 1-1v-1h1a8 8 0 0 1 3-2l1-1h1l1-1h2l1-1h1l1-1h1c0 1 0 0 0 0h1l1 1 1 1-1 3-2 2-2 2-2 1-2-1-1 1-6 6-3 7-1 3-1 1 2 3 3 2 2-1 3-1 1-1 1-1 3-1a7 7 0 0 0 1-1l2-2 1-1a38 38 0 0 1 2-1h1l4-3a192 192 0 0 1 8-5ZM96 148l4 7c1 2 3 5 3 8l1 3 1 4 5 15a653 653 0 0 0 25 52l3 2a50 50 0 0 1 6 4 14 14 0 0 0 5 2l3 1 2 2 2 1 2 1h3a46 46 0 0 0 12 5 71 71 0 0 1 8 2l4 1 4 3 3 5 6 2 1 2 2 2c2 1 3 3 2 3v1l-5 1-3 2h-4l-4-1-9-1a138 138 0 0 0-14-1h-9a117 117 0 0 1-26-14l-6-3a4198 4198 0 0 1-16-20l-2-4v-1l-1-1-2-4-2-1-1-4-1-2v-3a420 420 0 0 0-20-58l-3-6-3-5v-1l-1-1-1-2-2 6-3 5-4 9-3 6-3 11-4 7a116 116 0 0 1-5 16 360 360 0 0 0-4 11l-1 5v4l-2 5c-1 3-3 4-6 5a145 145 0 0 0-22 7c-3 1-6 2-9 1-2 0-2-1-2-3l2-4a221 221 0 0 1 13-22l1-2 1-3v-3a145 145 0 0 0 4-11l2-4v-2l1-2 2-4 2-4a237 237 0 0 0 6-12 76 76 0 0 1 9-17l3-6v-1l1-1 1-2 2-2 2-2 2-4 1-3a138 138 0 0 0 7-14v-1l1-3 2-3 1-2 2-2 1-2a24 24 0 0 0 3-5l4-8 4-9 2-3v-1a664 664 0 0 0 14-28l-6 3-5 4-1 1-2 1-14 9-11 11-4 2-1 1-2 1-5 1c-3 0-4 0-6-2 0-6 0-10 2-13l5-9 9-7 9-5a78 78 0 0 0 7-6 373 373 0 0 0 27-17 196 196 0 0 1 17-6l18-4a3971 3971 0 0 0 21-7h4l9-1 3 1a12 12 0 0 1 5 0l2 1h2l3 1h2c2 2 3 3 6 3a46 46 0 0 1 11 4l5 3 2 4v8a102 102 0 0 1 2 12 207 207 0 0 1 0 16l-2 6a35 35 0 0 0-3 6 104 104 0 0 1-11 16l-8 5-6 4-2 1-3 1-3 3a46 46 0 0 0-3 2c-2 2-3 3-5 3l-2 4c-5 2-9 5-13 9a109 109 0 0 1-14 11l-3 2-5 4-6 4-6 2c-5 3-12 5-19 6Zm69-121h-3l-4 1a31 31 0 0 0-7 2 34 34 0 0 1-8 2 161 161 0 0 0-12 4v2l-1 3-3 5-3 6-5 7a99 99 0 0 1-3 8 96 96 0 0 0-6 9l-2 2v1c-3 2-5 5-6 8l-6 8a36 36 0 0 0-4 7l-3 5-3 4-1 3-1 2-7 12-1 3-1 2h3l2-1 15-7a1296 1296 0 0 0 36-20l7-4 3-1 3-2 5-3 4-4 7-6 6-7 1-1 2-1 6-6 6-6 2-5 2-6 1-5 2-4-3-4-3-4-1-4-2-3a24 24 0 0 1-2-1h-3l-4-1h-5ZM395 162l5 2 1 2-3 5-2 1a61 61 0 0 1-9 11 98 98 0 0 0-12 14l-3 3-6 6a39 39 0 0 1-6 5l-2 1-1 1-2 2-1 1-3 3-1 1-2 1-3 4-4 5-6 3-7 4-3 3-3 3h-6l-4-1-3-2h-1c-2-3-4-6-4-9l-2-5-1-5-1-3-1-4v-4l-1-1a113 113 0 0 1-2-7l-1-7 1-7c2-7 3-14 6-20a370 370 0 0 1 13-34 57 57 0 0 1 4-11l2-6a101 101 0 0 0 2-9l1-3 3-6 2-6a253 253 0 0 1 5-12v-2l1-1 2-4 1-3 2-3 1-2 2-2 2-5 3-5 3-5 1-1 1-1 1-3 8-11 8-12 7-8a163 163 0 0 1 13-13l6 1a31 31 0 0 1 3 7v18a463 463 0 0 1-13 53l-2 6-2 6a318 318 0 0 1-19 25l-11 15-11 16-7 7-7 8a145 145 0 0 0-5 21l-1 7-1 4-1 3v2l-1 5-1 5 1 4 1 3 4 3 2-1h1l3-3 3-2 3-2 1-1 2-1 1-1 9-7c2-2 5-3 6-6l6-3 3-3 4-2 1-2 1-1 4-3a100 100 0 0 0 7-5 273 273 0 0 1 6-5l2-2 2-2 2-1 1-2 2-2ZM379 46h-1c-1 0-3 1-3 3l-3 5a37 37 0 0 1-2 3v4a293 293 0 0 0-25 51l-8 17c4-4 8-9 11-15a89 89 0 0 1 11-14 192 192 0 0 1 10-20c4-6 6-13 8-21v-6c2-2 2-4 2-7Z" class="cls-2"/>
    <path d="M478 162c3 0 4 1 5 2l1 2-3 5-2 1a61 61 0 0 1-9 11 98 98 0 0 0-12 14l-3 3-6 6a39 39 0 0 1-6 5l-2 1-1 1-2 2-1 1-3 3-1 1-2 1-3 4-4 5-6 3-7 4-3 3-3 3h-6l-4-1-3-2h-1c-2-3-4-6-4-9l-2-5-1-5-1-3-1-4v-4l-1-1a113 113 0 0 1-2-7v-14c2-7 3-14 6-20a370 370 0 0 1 13-34 57 57 0 0 1 4-11l2-6a101 101 0 0 0 2-9l1-3 3-6 2-6a253 253 0 0 1 5-12v-2l1-1 2-4 1-3 2-3 1-2 2-2 2-5 3-5 3-5 1-1 1-1 2-3 7-11 8-12 7-8a163 163 0 0 1 13-13l6 1a31 31 0 0 1 3 7v18a463 463 0 0 1-13 53l-2 6-2 6a318 318 0 0 1-19 25l-11 15-11 16-7 7-7 8a145 145 0 0 0-5 21l-1 7-1 4-1 3v2l-1 5-1 5 1 4 1 3 4 3 2-1h1l3-3 3-2 3-2 1-1 2-1 1-1 9-7c2-2 5-3 6-6l6-3 3-3 4-2 1-2 1-1 4-3a100 100 0 0 0 7-5 273 273 0 0 1 6-5l2-2 2-2 2-1 1-2 2-2ZM462 46h-1c-1 0-3 1-3 3l-2 5a37 37 0 0 1-2 3l-1 4a293 293 0 0 0-25 51l-8 17c4-4 8-9 11-15a89 89 0 0 1 12-14 192 192 0 0 1 9-20c4-6 6-13 8-21-1-2-1-5 1-6l1-7Z" class="cls-2"/>
  </g>
  <path id="Layer_3" fill="url(#linear-gradient)" d="M290 179v2l-65-37 39-22 4 4c14 14 22 33 22 53Zm-74-75c-9 0-17 2-26 5v44l65-37c-12-8-25-12-39-12Zm-35 9a75 75 0 0 0-39 53l39 22v-75Zm-40 63v3a74 74 0 0 0 27 57l38-22-65-38Zm75 77c8 0 17-1 25-4v-44l-65 37c12 7 26 11 40 11Zm35-59v51a75 75 0 0 0 38-53l-38-22v24Z"/>
</svg>
